# xmcd
#
# Track frame offsets: 
#        150
#        11525
#        22825
#        34132
#        44805
#        57970
#        70562
#        83344
#        97274
#        109101
#        120449
#        132324
#
# Disc length: 1903 seconds
#
# Revision: 2
# Processed by: cddbd v1.5.2PL0 Copyright (c) Steve Scherf et al.
# Submitted via: ExactAudioCopyFreeDBPlugin 1.0
#
DISCID=94076d0c
DTITLE=Sam and Dave - Hold On, I'm Comin'
DYEAR=1966
DGENRE=Soul
TTITLE0=Hold On, I'm Comin'
TTITLE1=If You Got the Loving
TTITLE2=I Take What I Want
TTITLE3=Ease Me
TTITLE4=I Got Everything I Need
TTITLE5=Don't Make it So Hard on Me
TTITLE6=It's a Wonder
TTITLE7=Don't Help Me Out
TTITLE8=Just Me
TTITLE9=You Got it Made
TTITLE10=You Don't Know Like I Know
TTITLE11=Blame Me (Don't Blame My Heart)
EXTD=
EXTT0=
EXTT1=
EXTT2=
EXTT3=
EXTT4=
EXTT5=
EXTT6=
EXTT7=
EXTT8=
EXTT9=
EXTT10=
EXTT11=
PLAYORDER=
